<svg width="31" height="19" viewBox="0 0 31 19" fill="none" xmlns="http://www.w3.org/2000/svg">
<path d="M0.782495 19C0.5836 19 0.384705 18.9233 0.227682 18.7589C-0.0758941 18.4411 -0.0758941 17.9151 0.227682 17.5973L7.05292 10.4521C7.55539 9.92603 7.55539 9.07123 7.05292 8.54521L0.227682 1.4C-0.0758941 1.08219 -0.0758941 0.556164 0.227682 0.238356C0.531259 -0.079452 1.03373 -0.079452 1.33731 0.238356L8.16255 7.38356C8.69642 7.94247 9 8.69863 9 9.49863C9 10.2986 8.70689 11.0548 8.16255 11.6137L1.33731 18.7589C1.18028 18.9123 0.98139 19 0.782495 19Z" fill="white"/>
<path d="M11.7825 19C11.5836 19 11.3847 18.9233 11.2277 18.7589C10.9241 18.4411 10.9241 17.9151 11.2277 17.5973L18.0529 10.4521C18.5554 9.92603 18.5554 9.07123 18.0529 8.54521L11.2277 1.4C10.9241 1.08219 10.9241 0.556164 11.2277 0.238356C11.5313 -0.079452 12.0337 -0.079452 12.3373 0.238356L19.1625 7.38356C19.6964 7.94247 20 8.69863 20 9.49863C20 10.2986 19.7069 11.0548 19.1625 11.6137L12.3373 18.7589C12.1803 18.9123 11.9814 19 11.7825 19Z" fill="white" fill-opacity="0.6"/>
<path d="M22.7825 19C22.5836 19 22.3847 18.9233 22.2277 18.7589C21.9241 18.4411 21.9241 17.9151 22.2277 17.5973L29.0529 10.4521C29.5554 9.92603 29.5554 9.07123 29.0529 8.54521L22.2277 1.4C21.9241 1.08219 21.9241 0.556164 22.2277 0.238356C22.5313 -0.079452 23.0337 -0.079452 23.3373 0.238356L30.1625 7.38356C30.6964 7.94247 31 8.69863 31 9.49863C31 10.2986 30.7069 11.0548 30.1625 11.6137L23.3373 18.7589C23.1803 18.9123 22.9814 19 22.7825 19Z" fill="white" fill-opacity="0.3"/>
</svg>
